# Blender v2.79 (sub 0) OBJ File: ''
# www.blender.org
mtllib sagyoudai_mesh_yy.mtl
o mat2.001
v 0.000000 0.780000 0.420000
v 0.000000 0.820000 0.420000
v -0.740000 0.820000 0.420000
v -0.740000 0.780000 0.420000
v 0.000000 0.820000 0.380000
v -0.740000 0.820000 0.380000
v 0.000000 0.780000 0.380000
v -0.740000 0.780000 0.380000
v -0.740000 -0.780000 0.420000
v -0.740000 -0.820000 0.420000
v 0.000000 -0.820000 0.420000
v 0.000000 -0.780000 0.420000
v -0.740000 -0.820000 0.380000
v 0.000000 -0.820000 0.380000
v -0.740000 -0.780000 0.380000
v 0.000000 -0.780000 0.380000
v -0.740000 0.780000 -0.420000
v -0.740000 0.820000 -0.420000
v -0.000000 0.820000 -0.420000
v -0.000000 0.780000 -0.420000
v -0.740000 0.820000 -0.380000
v -0.000000 0.820000 -0.380000
v -0.740000 0.780000 -0.380000
v -0.000000 0.780000 -0.380000
v -0.000000 -0.780000 -0.420000
v -0.000000 -0.820000 -0.420000
v -0.740000 -0.820000 -0.420000
v -0.740000 -0.780000 -0.420000
v -0.000000 -0.820000 -0.380000
v -0.740000 -0.820000 -0.380000
v -0.000000 -0.780000 -0.380000
v -0.740000 -0.780000 -0.380000
v -0.180000 0.780000 0.389610
v -0.180000 0.820000 0.389610
v -0.220000 0.820000 0.389610
v -0.220000 0.780000 0.389610
v -0.180000 0.820000 -0.389610
v -0.220000 0.820000 -0.389610
v -0.180000 0.780000 -0.389610
v -0.220000 0.780000 -0.389610
v -0.220000 -0.780000 0.389610
v -0.220000 -0.820000 0.389610
v -0.180000 -0.820000 0.389610
v -0.180000 -0.780000 0.389610
v -0.220000 -0.820000 -0.389610
v -0.180000 -0.820000 -0.389610
v -0.220000 -0.780000 -0.389610
v -0.180000 -0.780000 -0.389610
v -0.180000 -0.800000 0.020000
v -0.180000 0.800000 0.020000
v -0.220000 0.800000 0.020000
v -0.220000 -0.800000 0.020000
v -0.180000 0.800000 -0.020000
v -0.220000 0.800000 -0.020000
v -0.180000 -0.800000 -0.020000
v -0.220000 -0.800000 -0.020000
vt 0.921801 0.119558
vt 0.927257 0.119558
vt 0.927257 0.213164
vt 0.921801 0.213164
vt 0.359349 0.198915
vt 0.364805 0.198915
vt 0.364806 0.292521
vt 0.359349 0.292521
vt 0.756582 0.121120
vt 0.762038 0.121120
vt 0.762038 0.214726
vt 0.756582 0.214726
vt 0.259397 0.197386
vt 0.253941 0.197386
vt 0.253941 0.103780
vt 0.259397 0.103780
vt 0.392393 0.328235
vt 0.397849 0.328235
vt 0.397849 0.333294
vt 0.392393 0.333294
vt 0.939431 0.235896
vt 0.933975 0.235896
vt 0.933975 0.230836
vt 0.939431 0.230836
vt 0.528285 0.292698
vt 0.522829 0.292698
vt 0.522829 0.199092
vt 0.528285 0.199092
vt 0.947888 0.112779
vt 0.953344 0.112779
vt 0.953344 0.206385
vt 0.947888 0.206385
vt 0.788125 0.213164
vt 0.782669 0.213164
vt 0.782669 0.119558
vt 0.788125 0.119558
vt 0.503937 0.292521
vt 0.498481 0.292521
vt 0.498481 0.198915
vt 0.503937 0.198915
vt 0.760299 0.239273
vt 0.754843 0.239273
vt 0.754843 0.234213
vt 0.760299 0.234213
vt 0.899192 0.229425
vt 0.904648 0.229425
vt 0.904648 0.234484
vt 0.899192 0.234484
vt 0.810734 0.199428
vt 0.805278 0.199428
vt 0.808756 0.112779
vt 0.814212 0.112779
vt 0.235049 0.197208
vt 0.229593 0.197208
vt 0.229592 0.103602
vt 0.235049 0.103602
vt 0.389154 0.292698
vt 0.383697 0.292698
vt 0.383697 0.199092
vt 0.389154 0.199092
vt 0.669624 0.127662
vt 0.675080 0.127662
vt 0.675080 0.221268
vt 0.669624 0.221268
vt 0.965279 0.235726
vt 0.970736 0.235726
vt 0.970736 0.240786
vt 0.965279 0.240786
vt 0.864648 0.231334
vt 0.859191 0.231334
vt 0.859191 0.226274
vt 0.864648 0.226274
vt 0.864409 0.113986
vt 0.869865 0.113986
vt 0.869865 0.207592
vt 0.864409 0.207592
vt 0.901170 0.214726
vt 0.895713 0.214726
vt 0.895713 0.121120
vt 0.901170 0.121120
vt 0.130434 0.108741
vt 0.135890 0.108741
vt 0.135890 0.202347
vt 0.130434 0.202347
vt 0.725277 0.113986
vt 0.730733 0.113986
vt 0.730733 0.207592
vt 0.725277 0.207592
vt 0.828125 0.236879
vt 0.822669 0.236879
vt 0.822669 0.231819
vt 0.828125 0.231819
vt 0.780930 0.235625
vt 0.786386 0.235625
vt 0.786386 0.240685
vt 0.780930 0.240685
vt 0.171521 0.321010
vt 0.176977 0.321010
vt 0.176977 0.326070
vt 0.171521 0.326070
vt 0.643537 0.228047
vt 0.643537 0.129480
vt 0.648993 0.129480
vt 0.648993 0.228047
vt 0.728994 0.237862
vt 0.723538 0.237862
vt 0.723538 0.232802
vt 0.728994 0.232802
vt 0.617450 0.224648
vt 0.617450 0.126081
vt 0.622906 0.126081
vt 0.622906 0.224648
vt 0.586145 0.113986
vt 0.591601 0.113986
vt 0.591601 0.212553
vt 0.586145 0.212553
vt 0.345675 0.295822
vt 0.340219 0.295822
vt 0.340219 0.197254
vt 0.345675 0.197254
vt 0.316109 0.326070
vt 0.310653 0.326070
vt 0.310653 0.321010
vt 0.316109 0.321010
vt 0.215918 0.101942
vt 0.215918 0.200509
vt 0.210462 0.200509
vt 0.210462 0.101942
vt 0.032389 0.321010
vt 0.037846 0.321010
vt 0.037846 0.326070
vt 0.032389 0.326070
vt 0.111542 0.103602
vt 0.111542 0.202169
vt 0.106086 0.202169
vt 0.106086 0.103602
vt 0.484807 0.295822
vt 0.479351 0.295822
vt 0.479351 0.197254
vt 0.484807 0.197254
vt 0.086955 0.101942
vt 0.092411 0.101942
vt 0.092411 0.200509
vt 0.086955 0.200509
vt 0.453263 0.295901
vt 0.453263 0.093509
vt 0.458719 0.093509
vt 0.458719 0.295901
vt 0.664407 0.239914
vt 0.669863 0.239914
vt 0.669863 0.244973
vt 0.664407 0.244973
vt 0.319588 0.093509
vt 0.319588 0.295901
vt 0.314131 0.295901
vt 0.314131 0.093509
vt 0.536981 0.318411
vt 0.531525 0.318411
vt 0.531525 0.313351
vt 0.536981 0.313351
vt 0.175000 0.295901
vt 0.175000 0.093509
vt 0.180456 0.093509
vt 0.180456 0.295901
vt 0.035868 0.295901
vt 0.035868 0.093509
vt 0.041324 0.093509
vt 0.041324 0.295901
vn 0.0000 0.0000 1.0000
vn 0.0000 1.0000 0.0000
vn -0.0000 0.0000 -1.0000
vn -0.0000 -1.0000 0.0000
vn -1.0000 0.0000 0.0000
vn 1.0000 -0.0000 -0.0000
usemtl Material.002
s 1
f 1/1/1 2/2/1 3/3/1 4/4/1
f 2/5/2 5/6/2 6/7/2 3/8/2
f 5/9/3 7/10/3 8/11/3 6/12/3
f 7/13/4 1/14/4 4/15/4 8/16/4
f 4/17/5 3/18/5 6/19/5 8/20/5
f 7/21/6 5/22/6 2/23/6 1/24/6
f 9/25/1 10/26/1 11/27/1 12/28/1
f 10/29/4 13/30/4 14/31/4 11/32/4
f 13/33/3 15/34/3 16/35/3 14/36/3
f 15/37/2 9/38/2 12/39/2 16/40/2
f 15/41/5 13/42/5 10/43/5 9/44/5
f 12/45/6 11/46/6 14/47/6 16/48/6
f 17/49/3 18/50/3 19/51/3 20/52/3
f 18/53/2 21/54/2 22/55/2 19/56/2
f 21/57/1 23/58/1 24/59/1 22/60/1
f 23/61/4 17/62/4 20/63/4 24/64/4
f 23/65/5 21/66/5 18/67/5 17/68/5
f 20/69/6 19/70/6 22/71/6 24/72/6
f 25/73/3 26/74/3 27/75/3 28/76/3
f 26/77/4 29/78/4 30/79/4 27/80/4
f 29/81/1 31/82/1 32/83/1 30/84/1
f 31/85/2 25/86/2 28/87/2 32/88/2
f 28/89/5 27/90/5 30/91/5 32/92/5
f 31/93/6 29/94/6 26/95/6 25/96/6
f 33/97/1 34/98/1 35/99/1 36/100/1
f 34/101/2 37/102/2 38/103/2 35/104/2
f 37/105/3 39/106/3 40/107/3 38/108/3
f 39/109/4 33/110/4 36/111/4 40/112/4
f 36/113/5 35/114/5 38/115/5 40/116/5
f 39/117/6 37/118/6 34/119/6 33/120/6
f 41/121/1 42/122/1 43/123/1 44/124/1
f 42/125/4 45/126/4 46/127/4 43/128/4
f 45/129/3 47/130/3 48/131/3 46/132/3
f 47/133/2 41/134/2 44/135/2 48/136/2
f 47/137/5 45/138/5 42/139/5 41/140/5
f 44/141/6 43/142/6 46/143/6 48/144/6
f 49/145/1 50/146/1 51/147/1 52/148/1
f 50/149/2 53/150/2 54/151/2 51/152/2
f 53/153/3 55/154/3 56/155/3 54/156/3
f 55/157/4 49/158/4 52/159/4 56/160/4
f 52/161/5 51/162/5 54/163/5 56/164/5
f 55/165/6 53/166/6 50/167/6 49/168/6
o mat1.001
v -0.725359 -0.900000 0.450000
v -0.725359 0.900000 0.450000
v -0.754641 0.900000 0.450000
v -0.754641 -0.900000 0.450000
v -0.725359 0.900000 -0.450000
v -0.725359 -0.900000 -0.450000
v -0.754641 -0.900000 -0.450000
v -0.754641 0.900000 -0.450000
vt 0.101178 0.450933
vt 0.102741 0.120942
vt 0.137006 0.127192
vt 0.151068 0.450933
vt 0.897259 0.088129
vt 0.897259 0.411870
vt 0.891119 0.411870
vt 0.891119 0.088129
vt 0.320612 0.431250
vt 0.319050 0.263130
vt 0.375189 0.261567
vt 0.364252 0.431250
vt 0.593805 0.924371
vt 0.603180 0.700630
vt 0.748138 0.681880
vt 0.754388 0.905621
vt 0.212116 0.921246
vt 0.198053 0.691255
vt 0.360198 0.681880
vt 0.353949 0.914996
vt 0.538484 0.454688
vt 0.541609 0.306880
vt 0.593061 0.292817
vt 0.591498 0.454688
vn 0.0000 0.0000 1.0000
vn 0.0000 0.0000 -1.0000
vn 0.0000 -1.0000 0.0000
vn -1.0000 0.0000 0.0000
vn 1.0000 -0.0000 -0.0000
vn 0.0000 1.0000 0.0000
usemtl Material.001
s 1
f 57/169/7 58/170/7 59/171/7 60/172/7
f 61/173/8 62/174/8 63/175/8 64/176/8
f 62/177/9 57/178/9 60/179/9 63/180/9
f 60/181/10 59/182/10 64/183/10 63/184/10
f 62/185/11 61/186/11 58/187/11 57/188/11
usemtl Material.001_NONE
f 58/189/12 61/190/12 64/191/12 59/192/12
