# Blender v2.79 (sub 0) OBJ File: ''
# www.blender.org
mtllib table_mesh_x.mtl
o mat1
v 0.540000 -0.290000 -0.000000
v 0.580000 -0.290000 -0.000000
v 0.580000 -0.290000 0.700000
v 0.540000 -0.290000 0.700000
v 0.580000 -0.250000 -0.000000
v 0.580000 -0.250000 0.700000
v 0.540000 -0.250000 -0.000000
v 0.540000 -0.250000 0.700000
v -0.540000 -0.290000 0.700000
v -0.580000 -0.290000 0.700000
v -0.580000 -0.290000 -0.000000
v -0.540000 -0.290000 -0.000000
v -0.580000 -0.250000 0.700000
v -0.580000 -0.250000 -0.000000
v -0.540000 -0.250000 0.700000
v -0.540000 -0.250000 -0.000000
v 0.540000 0.290000 0.700000
v 0.580000 0.290000 0.700000
v 0.580000 0.290000 0.000000
v 0.540000 0.290000 0.000000
v 0.580000 0.250000 0.700000
v 0.580000 0.250000 0.000000
v 0.540000 0.250000 0.700000
v 0.540000 0.250000 0.000000
v -0.540000 0.290000 0.000000
v -0.580000 0.290000 0.000000
v -0.580000 0.290000 0.700000
v -0.540000 0.290000 0.700000
v -0.580000 0.250000 0.000000
v -0.580000 0.250000 0.700000
v -0.540000 0.250000 0.000000
v -0.540000 0.250000 0.700000
vt 0.000000 0.000000
vt 1.000000 0.000000
vt 1.000000 1.000000
vt 0.000000 1.000000
vt 0.000000 0.000000
vt 1.000000 0.000000
vt 1.000000 1.000000
vt 0.000000 1.000000
vt 0.000000 0.000000
vt 1.000000 0.000000
vt 1.000000 1.000000
vt 0.000000 1.000000
vt 0.000000 0.000000
vt 1.000000 0.000000
vt 1.000000 1.000000
vt 0.000000 1.000000
vt 0.000000 0.000000
vt 1.000000 0.000000
vt 1.000000 1.000000
vt 0.000000 1.000000
vt 0.000000 1.000000
vt 1.000000 1.000000
vt 1.000000 0.000000
vt 0.000000 0.000000
vt 0.000000 1.000000
vt 1.000000 1.000000
vt 1.000000 0.000000
vt 0.000000 0.000000
vt 0.000000 1.000000
vt 1.000000 1.000000
vt 1.000000 0.000000
vt 0.000000 0.000000
vt 0.000000 1.000000
vt 1.000000 1.000000
vt 1.000000 0.000000
vt 0.000000 0.000000
vt 1.000000 0.000000
vt 0.000000 0.000000
vt 0.000000 1.000000
vt 1.000000 1.000000
vt 0.000000 1.000000
vt 1.000000 1.000000
vt 1.000000 0.000000
vt 0.000000 0.000000
vt 0.000000 1.000000
vt 1.000000 1.000000
vt 1.000000 0.000000
vt 0.000000 0.000000
vt 0.000000 1.000000
vt 1.000000 1.000000
vt 1.000000 0.000000
vt 0.000000 0.000000
vt 0.000000 1.000000
vt 1.000000 1.000000
vt 1.000000 0.000000
vt 0.000000 0.000000
vt 1.000000 0.000000
vt 0.000000 0.000000
vt 0.000000 1.000000
vt 1.000000 1.000000
vt 0.000000 0.000000
vt 1.000000 0.000000
vt 1.000000 1.000000
vt 0.000000 1.000000
vt 0.000000 0.000000
vt 1.000000 0.000000
vt 1.000000 1.000000
vt 0.000000 1.000000
vt 0.000000 0.000000
vt 1.000000 0.000000
vt 1.000000 1.000000
vt 0.000000 1.000000
vt 0.000000 0.000000
vt 1.000000 0.000000
vt 1.000000 1.000000
vt 0.000000 1.000000
vt 0.000000 0.000000
vt 1.000000 0.000000
vt 1.000000 1.000000
vt 0.000000 1.000000
vn 0.0000 -1.0000 -0.0000
vn 1.0000 0.0000 0.0000
vn 0.0000 1.0000 0.0000
vn -1.0000 -0.0000 0.0000
vn 0.0000 -0.0000 1.0000
vn 0.0000 0.0000 -1.0000
usemtl Material.002
s 1
f 1/1/1 2/2/1 3/3/1 4/4/1
f 2/5/2 5/6/2 6/7/2 3/8/2
f 5/9/3 7/10/3 8/11/3 6/12/3
f 7/13/4 1/14/4 4/15/4 8/16/4
f 4/17/5 3/18/5 6/7/5 8/16/5
f 7/13/6 5/6/6 2/19/6 1/20/6
f 9/21/1 10/22/1 11/23/1 12/24/1
f 10/25/4 13/26/4 14/27/4 11/28/4
f 13/29/3 15/30/3 16/31/3 14/32/3
f 15/33/2 9/34/2 12/35/2 16/36/2
f 15/33/5 13/26/5 10/37/5 9/38/5
f 12/39/6 11/40/6 14/27/6 16/36/6
f 17/41/3 18/42/3 19/43/3 20/44/3
f 18/45/2 21/46/2 22/47/2 19/48/2
f 21/49/1 23/50/1 24/51/1 22/52/1
f 23/53/4 17/54/4 20/55/4 24/56/4
f 23/53/5 21/46/5 18/57/5 17/58/5
f 20/59/6 19/60/6 22/47/6 24/56/6
f 25/61/3 26/62/3 27/63/3 28/64/3
f 26/65/4 29/66/4 30/67/4 27/68/4
f 29/69/1 31/70/1 32/71/1 30/72/1
f 31/73/2 25/74/2 28/75/2 32/76/2
f 28/77/5 27/78/5 30/67/5 32/76/5
f 31/73/6 29/66/6 26/79/6 25/80/6
o mat2
v -0.600000 -0.300000 0.690000
v 0.600000 -0.300000 0.690000
v 0.600000 -0.300000 0.710000
v -0.600000 -0.300000 0.710000
v 0.600000 0.300000 0.690000
v 0.600000 0.300000 0.710000
v -0.600000 0.300000 0.690000
v -0.600000 0.300000 0.710000
vt 0.011080 0.340976
vt 0.669832 0.340976
vt 0.669841 0.352474
vt 0.011089 0.352474
vt 0.000101 0.682531
vt 0.000101 0.352677
vt 0.011096 0.352677
vt 0.011097 0.682531
vt 0.669832 0.011600
vt 0.011080 0.011600
vt 0.011072 0.000101
vt 0.669824 0.000101
vt 0.000101 0.340976
vt 0.000101 0.011600
vt 0.001140 0.360580
vt 0.670044 0.356029
vt 0.676901 0.674159
vt 0.007998 0.678710
vn 0.0000 -1.0000 0.0000
vn 1.0000 -0.0000 0.0000
vn 0.0000 1.0000 0.0000
vn -1.0000 -0.0000 0.0000
vn 0.0000 -0.0000 1.0000
vn 0.0000 0.0000 -1.0000
usemtl Material.001
s 1
f 33/81/7 34/82/7 35/83/7 36/84/7
f 34/85/8 37/86/8 38/87/8 35/88/8
f 37/89/9 39/90/9 40/91/9 38/92/9
f 39/90/10 33/81/10 36/93/10 40/94/10
f 36/95/11 35/96/11 38/97/11 40/98/11
f 39/90/12 37/89/12 34/82/12 33/81/12
